<?xml version="1.0" encoding="UTF-8" standalone="no"?>
<svg
   enable-background="new 0 0 24 24"
   height="24"
   viewBox="0 0 24 24"
   width="24"
   version="1.1"
   id="svg1"
   sodipodi:docname="achievements.svg"
   inkscape:version="1.3.1 (91b66b0783, 2023-11-16, custom)"
   xmlns:inkscape="http://www.inkscape.org/namespaces/inkscape"
   xmlns:sodipodi="http://sodipodi.sourceforge.net/DTD/sodipodi-0.dtd"
   xmlns="http://www.w3.org/2000/svg"
   xmlns:svg="http://www.w3.org/2000/svg">
  <defs
     id="defs1" />
  <sodipodi:namedview
     id="namedview1"
     pagecolor="#ffffff"
     bordercolor="#000000"
     borderopacity="0.25"
     inkscape:showpageshadow="2"
     inkscape:pageopacity="0.0"
     inkscape:pagecheckerboard="0"
     inkscape:deskcolor="#d1d1d1"
     inkscape:zoom="30.833333"
     inkscape:cx="12"
     inkscape:cy="12"
     inkscape:window-width="1920"
     inkscape:window-height="1126"
     inkscape:window-x="0"
     inkscape:window-y="0"
     inkscape:window-maximized="1"
     inkscape:current-layer="svg1" />
  <rect
     fill="none"
     height="24"
     width="24"
     id="rect1" />
  <path
     d="M19,5h-2V3H7v2H5C3.9,5,3,5.9,3,7v1c0,2.55,1.92,4.63,4.39,4.94c0.63,1.5,1.98,2.63,3.61,2.96V19H7v2h10v-2h-4v-3.1 c1.63-0.33,2.98-1.46,3.61-2.96C19.08,12.63,21,10.55,21,8V7C21,5.9,20.1,5,19,5z M5,8V7h2v3.82C5.84,10.4,5,9.3,5,8z M19,8 c0,1.3-0.84,2.4-2,2.82V7h2V8z"
     id="path1"
     style="fill:#b4637a;fill-opacity:1" />
</svg>
