<?xml version="1.0" encoding="UTF-8" standalone="no"?>
<svg
   enable-background="new 0 0 24 24"
   height="24"
   viewBox="0 0 24 24"
   width="24"
   version="1.1"
   id="svg2"
   sodipodi:docname="light.svg"
   inkscape:version="1.3.2 (091e20ef0f, 2023-11-25, custom)"
   xmlns:inkscape="http://www.inkscape.org/namespaces/inkscape"
   xmlns:sodipodi="http://sodipodi.sourceforge.net/DTD/sodipodi-0.dtd"
   xmlns="http://www.w3.org/2000/svg"
   xmlns:svg="http://www.w3.org/2000/svg">
  <defs
     id="defs2" />
  <sodipodi:namedview
     id="namedview2"
     pagecolor="#ffffff"
     bordercolor="#000000"
     borderopacity="0.25"
     inkscape:showpageshadow="2"
     inkscape:pageopacity="0.0"
     inkscape:pagecheckerboard="0"
     inkscape:deskcolor="#d1d1d1"
     inkscape:zoom="35.083333"
     inkscape:cx="12"
     inkscape:cy="12"
     inkscape:window-width="1920"
     inkscape:window-height="1118"
     inkscape:window-x="0"
     inkscape:window-y="0"
     inkscape:window-maximized="1"
     inkscape:current-layer="svg2" />
  <g
     id="g1">
    <path
       d="M0,0h24v24H0V0z"
       fill="none"
       id="path1" />
  </g>
  <g
     id="g2"
     style="fill:#575279;fill-opacity:1">
    <path
       d="M13,6.06V3h-2v3.06c-4.5,0.5-8,4.31-8,8.93C3,16.1,3.9,17,5.01,17H8c0,2.21,1.79,4,4,4s4-1.79,4-4h2.99 C20.1,17,21,16.1,21,14.99C21,10.37,17.5,6.56,13,6.06z M12,15H5c0-3.86,3.14-7,7-7s7,3.14,7,7H12z"
       id="path2"
       style="fill:#575279;fill-opacity:1" />
  </g>
</svg>
