<?xml version="1.0" encoding="UTF-8" standalone="no"?>
<svg
   viewBox="0 0 243.19 187.06171"
   fill="none"
   version="1.1"
   id="svg15"
   sodipodi:docname="logo.svg"
   width="243.19"
   height="187.06171"
   inkscape:version="1.3 (0e150ed6c4, 2023-07-21)"
   xmlns:inkscape="http://www.inkscape.org/namespaces/inkscape"
   xmlns:sodipodi="http://sodipodi.sourceforge.net/DTD/sodipodi-0.dtd"
   xmlns="http://www.w3.org/2000/svg"
   xmlns:svg="http://www.w3.org/2000/svg">
  <defs
     id="defs15" />
  <sodipodi:namedview
     id="namedview15"
     pagecolor="#ffffff"
     bordercolor="#000000"
     borderopacity="0.25"
     inkscape:showpageshadow="2"
     inkscape:pageopacity="0.0"
     inkscape:pagecheckerboard="0"
     inkscape:deskcolor="#d1d1d1"
     inkscape:zoom="2.2077357"
     inkscape:cx="125.01496"
     inkscape:cy="185.25768"
     inkscape:window-width="1920"
     inkscape:window-height="999"
     inkscape:window-x="0"
     inkscape:window-y="0"
     inkscape:window-maximized="1"
     inkscape:current-layer="svg15" />
  <path
     fill-rule="evenodd"
     clip-rule="evenodd"
     d="m 51.01,160.68448 c 3.593,-3.859 9.633,-4.075 13.493,-0.483 l 0.011,0.011 11.009,10.283 c 3.861,3.605 4.072,9.658 0.473,13.525 -3.594,3.859 -9.636,4.074 -13.493,0.482 -0.004,-0.004 -0.008,-0.006 -0.011,-0.01 l -11.009,-10.283 c -3.861,-3.606 -4.074,-9.659 -0.473,-13.525 z"
     fill="#f49000"
     id="path1" />
  <path
     fill-rule="evenodd"
     clip-rule="evenodd"
     d="m 192.76,160.68448 c -3.593,-3.859 -9.633,-4.075 -13.494,-0.483 l -0.011,0.011 -11.008,10.283 c -3.862,3.605 -4.073,9.658 -0.472,13.525 3.593,3.859 9.634,4.074 13.492,0.482 0.004,-0.004 0.007,-0.006 0.012,-0.01 l 11.007,-10.283 c 3.863,-3.606 4.074,-9.659 0.474,-13.525 z"
     fill="#f49000"
     id="path2" />
  <mask
     id="mask0"
     mask-type="alpha"
     maskUnits="userSpaceOnUse"
     x="78"
     y="0"
     width="244"
     height="177">
    <path
       fill-rule="evenodd"
       clip-rule="evenodd"
       d="M 78,0.561523 H 321.19 V 176.26 H 78 Z"
       fill="#ffffff"
       id="path3" />
  </mask>
  <g
     mask="url(#mask0)"
     id="g4"
     transform="translate(-78,-0.561523)">
    <path
       fill-rule="evenodd"
       clip-rule="evenodd"
       d="m 310.326,47.7757 -36.615,9.1267 V 25.586 c 0,-3.3528 -0.678,-6.6713 -1.992,-9.7556 C 266.331,3.18663 251.712,-2.69516 239.07,2.6926 c -18.853,8.032 -31.818,12.0492 -38.895,12.0492 -7.127,0 -20.302,-4.0711 -39.527,-12.21101 -3.07,-1.30067 -6.369,-1.969999 -9.703,-1.969999 -13.745,0 -24.886,11.142009 -24.886,24.885409 V 57.0471 L 88.8661,47.7757 c -5.7666,-1.438 -11.2573,3.1677 -10.8442,9.0948 1.9516,28.0139 21.6835,52.0665 49.3831,59.5845 6.553,34.066 36.504,59.806 72.48,59.806 36.034,0 66.022,-25.825 72.509,-59.971 27.38,-7.702 46.838,-31.6103 48.775,-59.4195 0.413,-5.9271 -5.078,-10.5328 -10.843,-9.0948 z"
       fill="#50C800"
       id="path4"
       style="fill:#cc3737;fill-opacity:1" />
  </g>
  <path
     fill-rule="evenodd"
     clip-rule="evenodd"
     d="m 170.657,28.151977 c -0.342,-2.3917 -1.122,-4.7344 -2.369,-6.8968 -0.869,-1.5079 -2.957,-1.7261 -4.124,-0.4303 l -4.222,4.6951 c -0.03,-0.0012 -0.061,-0.0012 -0.09,-0.0024 0.07,-3.4693 -0.771,-6.952 -2.564,-10.0621 -0.87,-1.509 -2.958,-1.726 -4.125,-0.429 l -20.306,22.5722 c -6.503,4.4842 -15.588,4.4548 -22.099,-0.1361 L 90.15,15.044877 c -1.165,-1.2958 -2.78,-1.0776 -3.65,0.429 -1.894,3.2854 -2.724,6.9851 -2.543,10.6444 -0.052,0.0036 -0.105,0.0098 -0.159,0.0122 l -4.772,-5.3056 c -1.166,-1.2958 -3.254,-1.0776 -4.124,0.4303 -1.46,2.5314 -2.279,5.3117 -2.5,8.13 -8.634,4.6707 -14.5,13.8072 -14.5,24.313 v 17.8194 c 0,15.2574 12.37,27.6265 27.628,27.6265 h 2.069 c 11.432,0 21.241,-6.9434 25.442,-16.8436 8.66,-0.0392 14.879,-0.0539 18.648,-0.0429 4.327,9.6158 13.985,16.3067 25.202,16.3067 h 1.929 c 15.257,0 27.626,-12.3679 27.626,-27.6265 v -17.8195 c 0,-11.0219 -6.455,-20.5323 -15.789,-24.9663 z"
     fill="#8EE000"
     id="path5"
     style="fill:#fdd700;fill-opacity:1" />
  <path
     fill-rule="evenodd"
     clip-rule="evenodd"
     d="m 107.698,76.117077 c 1.215,-6.6271 7.297,-11.7697 14.89,-11.7697 6.766,0 12.846,5.1426 14.062,11.7697 v 0.841 l -14.475,2.4689 -14.477,-2.4689 z"
     fill="#ffc200"
     id="path6" />
  <path
     fill-rule="evenodd"
     clip-rule="evenodd"
     d="m 122.174,79.425977 -10.421,-1.7775 c 0,0.0073 -0.001,0.0147 -0.001,0.0208 v 17.4321 c 0,5.757103 4.667,10.422103 10.422,10.422103 5.756,0 10.423,-4.665 10.423,-10.422103 v -17.4321 c 0,-0.0061 -0.001,-0.0135 -0.001,-0.0208 z"
     fill="#f49000"
     id="path7" />
  <path
     fill-rule="evenodd"
     clip-rule="evenodd"
     d="m 122.174,79.426177 -7.985,-1.3607 c -0.074,0.4388 -0.12,0.8875 -0.12,1.3484 v 11.6251 c 0,4.4769 3.628,8.1055 8.105,8.1055 4.477,0 8.106,-3.6286 8.106,-8.1055 v -11.6251 c 0,-0.4609 -0.047,-0.9096 -0.12,-1.3484 z"
     fill="#b66e28"
     id="path8" />
  <path
     fill-rule="evenodd"
     clip-rule="evenodd"
     d="m 177.761,66.144577 v -9.3694 c 0,-11.191 -9.073,-20.2649 -20.265,-20.2649 -11.194,0 -20.267,9.0739 -20.267,20.2649 v 12.2453 c 0,3.4839 0.88,6.7619 2.43,9.6255 13.873,-5.9614 26.667,-10.1514 38.102,-12.5014 z"
     fill="#fefefe"
     id="path9" />
  <path
     fill-rule="evenodd"
     clip-rule="evenodd"
     d="m 125.069,71.062277 c -0.235,0 -0.475,-0.0405 -0.71,-0.1263 -1.664,-0.608 -3.284,-0.608 -4.948,0 -1.078,0.3935 -2.267,-0.1618 -2.659,-1.2381 -0.391,-1.0762 0.163,-2.2665 1.239,-2.6588 2.583,-0.9414 5.204,-0.9414 7.788,0 1.076,0.3923 1.63,1.5826 1.239,2.6588 -0.306,0.841 -1.102,1.3644 -1.949,1.3644 z"
     fill="#ffde00"
     id="path10" />
  <path
     fill-rule="evenodd"
     clip-rule="evenodd"
     d="m 85.696,36.510277 c -11.194,0 -20.266,9.0728 -20.266,20.2652 v 9.2506 c 11.449,2.2985 24.277,6.4666 38.199,12.4183 1.484,-2.8171 2.332,-6.0192 2.332,-9.4235 v -12.2454 c 0,-11.1924 -9.073,-20.2652 -20.265,-20.2652 z"
     fill="#fefefe"
     id="path11" />
  <path
     fill-rule="evenodd"
     clip-rule="evenodd"
     d="m 147.951,75.248977 c 5.45,-2.1268 10.71,-3.962 15.765,-5.498 0.091,-0.5271 0.147,-1.0653 0.147,-1.6182 v -10.4702 c 0,-5.2761 -4.277,-9.5532 -9.553,-9.5532 -1.775,0 -3.431,0.4928 -4.856,1.3362 1.029,1.091 1.671,2.5535 1.671,4.1729 0,3.3638 -2.721,6.0889 -6.079,6.0889 -0.099,0 -0.191,-0.0233 -0.289,-0.0282 v 8.4536 c 0,2.8318 1.238,5.3669 3.194,7.1162 z"
     fill="#4c4c4c"
     id="path12" />
  <path
     fill-rule="evenodd"
     clip-rule="evenodd"
     d="m 131.221,139.16148 -18.58,0.007 c -0.997,0 -1.703,0.921 -1.396,1.818 1.476,4.314 5.773,7.291 10.683,7.289 4.908,-0.002 9.209,-2.982 10.687,-7.296 0.308,-0.898 -0.398,-1.818 -1.394,-1.818 z m 16.214,-15.659 -18.582,0.007 c -0.995,0 -1.702,0.92 -1.394,1.819 1.475,4.312 5.773,7.289 10.681,7.288 4.909,-0.003 9.208,-2.982 10.687,-7.296 0.308,-0.897 -0.397,-1.818 -1.392,-1.818 z m -31.032,1.818 c 0.307,-0.897 -0.399,-1.818 -1.395,-1.818 l -18.58,0.007 c -0.995,0 -1.703,0.92 -1.396,1.819 1.477,4.312 5.773,7.289 10.682,7.288 4.909,-0.003 9.209,-2.982 10.689,-7.296 z"
     fill="#8EE000"
     id="path13"
     style="fill:#fdd700;fill-opacity:1" />
  <path
     fill-rule="evenodd"
     clip-rule="evenodd"
     d="m 88.88,48.109377 c -1.478,0 -2.872,0.3445 -4.12,0.9452 1.273,1.1155 2.094,2.7362 2.094,4.564 0,3.3626 -2.723,6.089 -6.079,6.089 -0.501,0 -0.982,-0.0785 -1.449,-0.1925 v 8.6181 c 0,0.4866 0.049,0.9623 0.119,1.4306 5.118,1.536 10.446,3.381 15.968,5.5275 1.856,-1.7432 3.021,-4.2121 3.021,-6.9581 v -10.4704 c 0,-5.2775 -4.277,-9.5534 -9.554,-9.5534 z"
     fill="#4c4c4c"
     id="path14" />
</svg>
