<?xml version="1.0" encoding="UTF-8" standalone="no"?>
<svg
   version="1.1"
   id="Layer_1"
   x="0px"
   y="0px"
   width="100%"
   viewBox="0 0 1461 293"
   enable-background="new 0 0 1461 293"
   xml:space="preserve"
   sodipodi:docname="swatlingo.svg"
   inkscape:version="1.3 (0e150ed6c4, 2023-07-21)"
   xmlns:inkscape="http://www.inkscape.org/namespaces/inkscape"
   xmlns:sodipodi="http://sodipodi.sourceforge.net/DTD/sodipodi-0.dtd"
   xmlns="http://www.w3.org/2000/svg"
   xmlns:svg="http://www.w3.org/2000/svg"><defs
   id="defs16" /><sodipodi:namedview
   id="namedview16"
   pagecolor="#ffffff"
   bordercolor="#000000"
   borderopacity="0.25"
   inkscape:showpageshadow="2"
   inkscape:pageopacity="0.0"
   inkscape:pagecheckerboard="0"
   inkscape:deskcolor="#d1d1d1"
   inkscape:zoom="0.90645659"
   inkscape:cx="723.6971"
   inkscape:cy="139.0028"
   inkscape:window-width="1920"
   inkscape:window-height="999"
   inkscape:window-x="0"
   inkscape:window-y="0"
   inkscape:window-maximized="1"
   inkscape:current-layer="Layer_1" />&#10;<path
   fill="#000000"
   opacity="1.000000"
   stroke="none"
   d=" M1174.000000,294.000000   C783.000000,294.000000 392.000000,294.000000 1.000000,294.000000   C1.000000,265.578705 1.000000,237.255386 1.369311,208.485077   C6.026850,216.718216 13.861678,219.790802 22.629820,222.153656   C38.764221,226.501556 55.129971,227.449524 71.682465,226.997833   C86.213898,226.601288 99.994843,223.174164 112.471634,215.683868   C119.239357,211.620926 124.588043,206.050980 128.233322,198.641525   C132.966492,189.020798 133.661484,178.952805 132.892105,168.733063   C131.870636,155.165085 126.788132,143.238968 114.388664,136.366287   C107.159187,132.359192 99.160202,129.421448 91.178131,127.170052   C80.674477,124.207405 69.821983,122.498024 59.186287,119.968857   C57.618652,119.596062 56.418629,117.677399 55.048519,116.473961   C56.633190,114.989342 58.184471,112.275520 59.808266,112.231415   C67.103279,112.033279 74.527382,111.910362 81.700302,113.049156   C91.199898,114.557343 100.533340,117.167419 109.893166,119.485725   C119.925919,121.970695 126.991936,116.768990 127.002396,106.698387   C127.007072,102.198944 126.668655,97.660484 127.139465,93.208855   C127.929649,85.737450 125.064621,79.393860 118.494911,76.225754   C107.571800,70.958305 95.959106,68.883751 83.884880,67.785461   C69.433792,66.470970 55.177273,66.420517 41.153526,70.068321   C22.428778,74.938934 7.233103,84.040527 2.848189,104.893059   C2.747796,105.370476 1.638624,105.635765 1.000000,106.000000   C1.000000,71.016907 1.000000,36.033817 1.000000,1.000000   C264.022614,1.000000 527.045227,1.000000 790.764160,1.339305   C786.156982,4.771348 780.077271,7.031683 775.697754,11.115379   C763.352051,22.627161 757.317749,37.500881 757.108398,54.235153   C756.727051,84.718102 756.999939,115.209244 757.000000,145.696960   C757.000000,166.022110 756.981873,186.347275 757.009521,206.672379   C757.020142,214.471176 762.217468,221.308945 768.992371,221.924179   C775.897461,222.551239 782.856750,223.046539 789.779480,222.916214   C803.661255,222.654892 809.970703,216.924728 809.979065,204.909912   C810.022949,141.935318 810.023193,78.960648 809.957642,15.986081   C809.951904,10.518085 808.205200,5.702522 802.903259,2.897364   C802.406555,2.634573 802.291992,1.649641 802.000000,1.000002   C821.022644,1.000000 840.045227,1.000000 859.799500,1.314277   C860.052673,2.054208 859.644409,2.650635 859.085449,2.880640   C843.793640,9.172965 838.652283,23.938622 843.052917,38.249622   C847.462830,52.590546 861.283936,59.752605 878.065063,56.987766   C888.998230,55.186432 898.750488,44.874832 900.935364,32.805824   C902.684631,23.142998 896.301819,10.196214 887.421448,5.091099   C885.473938,3.971570 883.799927,2.376221 882.000000,0.999996   C1075.215698,1.000000 1268.431519,1.000000 1462.000000,1.000000   C1462.000000,44.355335 1462.000000,87.711624 1461.616211,131.703491   C1460.890015,131.994263 1460.303711,131.688995 1460.240601,131.299011   C1457.322266,113.283691 1448.852295,98.506142 1435.104492,86.457535   C1427.939209,80.177811 1420.058105,75.362976 1411.261719,72.006172   C1393.914673,65.386322 1376.030273,64.219933 1357.965942,68.076347   C1332.245850,73.567192 1313.002441,88.242416 1301.836548,111.916389   C1292.363403,132.001526 1292.506470,153.291229 1298.831299,174.488571   C1302.888916,188.087784 1310.829834,199.252075 1321.748413,208.030502   C1327.931519,213.001785 1334.746704,217.494583 1341.900879,220.887863   C1357.813721,228.435440 1374.755493,229.213348 1392.081177,227.095993   C1410.208008,224.880737 1425.678711,217.278488 1438.592529,204.746109   C1450.044312,193.632812 1457.257690,179.966812 1460.078979,164.110535   C1460.219971,163.318161 1461.337280,162.699493 1462.000000,161.999985   C1462.000000,205.950302 1462.000000,249.900620 1462.000000,294.000000   C1378.644043,294.000000 1295.288086,294.000000 1211.310303,293.605347   C1213.457153,292.473907 1216.203857,291.639099 1218.997925,291.016296   C1237.231934,286.952209 1253.272949,278.772369 1263.804810,263.044861   C1277.966553,241.896759 1278.995972,219.088287 1268.408203,196.041077   C1264.120850,186.708252 1257.835571,178.623428 1249.010254,172.852783   C1251.365845,170.007675 1253.539673,167.541977 1255.537842,164.941299   C1265.397217,152.109406 1268.971191,137.457626 1266.570923,121.683815   C1265.776489,116.463463 1263.980957,112.276329 1270.849243,110.535286   C1271.547607,110.358238 1272.029907,109.398552 1272.654053,108.849319   C1283.910034,98.943336 1287.509033,86.497871 1285.028931,71.961609   C1283.763794,64.547203 1277.253540,59.943855 1270.111572,61.980827   C1265.899414,63.182186 1261.847534,64.982956 1257.783569,66.659569   C1249.989990,69.874825 1241.959717,73.049568 1233.504395,71.807541   C1217.479004,69.453522 1201.503906,67.489235 1185.248169,67.938171   C1165.535400,68.482582 1148.618286,74.725006 1134.339233,88.926811   C1118.053589,105.124458 1113.016968,134.261749 1123.714111,155.081299   C1127.038696,161.551636 1131.770508,167.298782 1135.855103,173.378922   C1112.328613,191.235886 1105.299927,220.785095 1113.157959,245.660858   C1121.341064,271.566162 1141.084717,284.714813 1166.358643,291.042786   C1168.987793,291.701080 1171.456665,292.998932 1174.000000,294.000000  M220.566650,228.000000   C228.768387,227.330872 237.033157,227.088181 245.156296,225.887360   C255.911575,224.297440 264.948578,218.737045 272.281189,210.973389   C277.729187,205.205124 277.404938,204.678497 282.777618,210.334549   C289.492401,217.403503 297.219116,222.512482 306.753784,225.125488   C320.244751,228.822723 333.878021,229.042648 347.456818,226.818390   C358.116791,225.072205 367.663422,220.277664 375.709198,212.804596   C392.096191,197.583984 397.949463,177.755341 398.797028,156.475586   C399.698303,133.846970 399.020691,111.154610 398.990295,88.490143   C398.976654,78.300507 392.615082,72.041168 382.333038,72.004356   C376.000366,71.981682 369.641724,72.365341 363.340515,71.919647   C352.177094,71.130051 345.907166,78.955719 345.967773,89.188789   C346.080261,108.186317 346.388611,127.196999 345.801575,146.177032   C345.578186,153.399307 343.952820,160.861923 341.446198,167.653992   C338.665710,175.188293 331.132721,178.135803 324.302185,177.857895   C317.282959,177.572311 309.237122,173.143524 307.794006,165.421173   C306.445526,158.205399 304.376648,150.984268 304.172668,143.722000   C303.653473,125.238342 304.034119,106.730286 303.985992,88.232178   C303.959381,78.005104 297.888306,72.014481 287.708527,72.001457   C281.709106,71.993782 275.707794,72.096092 269.710602,71.980476   C256.230255,71.720612 250.980667,77.984131 250.994751,90.955063   C251.015213,109.786583 251.247894,128.623306 250.855194,147.446655   C250.730637,153.417404 249.541702,159.561691 247.691528,165.253281   C245.127151,173.141983 238.948318,177.609268 230.639557,177.865143   C224.606750,178.050903 216.350952,175.912445 213.663345,166.929550   C211.296066,159.017319 209.492096,150.672089 209.203491,142.456131   C208.554504,123.980675 209.040253,105.466667 208.981888,86.968613   C208.953903,78.099838 202.944946,72.106308 194.108658,72.013451   C187.776627,71.946907 181.422729,72.326759 175.115082,71.928871   C163.621521,71.203850 155.715164,77.475983 155.924881,91.148872   C156.221344,110.475815 155.872040,129.811844 156.044037,149.141800   C156.162918,162.500381 158.120438,175.549835 162.901947,188.178329   C172.097427,212.464539 193.223557,227.874832 220.566650,228.000000  M452.670685,80.081284   C442.491272,87.494965 434.698090,96.943039 428.989594,108.114998   C422.132416,121.534935 420.690430,135.911911 420.902130,150.778015   C421.249542,175.173691 429.859558,195.533707 448.744232,211.225662   C468.602203,227.726379 491.644440,230.810516 516.132812,226.327927   C528.549194,224.055115 539.559570,218.281281 548.819580,210.113632   C556.910339,218.323303 564.707153,225.980972 577.252441,225.057953   C583.381836,224.606979 587.974731,220.516357 587.979614,214.441910   C588.015503,169.788132 588.020508,125.134300 587.974915,80.480545   C587.968140,73.888374 583.009216,69.256050 576.368103,68.972275   C568.197021,68.623131 561.852844,72.476364 556.018738,77.519806   C553.562744,79.642952 551.332581,82.027336 549.630981,83.679909   C543.167725,79.847679 537.674194,75.842545 531.600952,73.139999   C517.539673,66.882805 502.858154,64.632584 487.368439,66.859871   C474.919220,68.649971 463.485077,72.367821 452.670685,80.081284  M976.499695,81.000259   C973.622070,84.329247 971.173645,84.472855 968.219727,80.719101   C963.652588,74.915314 957.370544,71.256371 950.358032,69.276047   C941.378174,66.740135 933.040222,71.753654 933.029602,79.447792   C932.970398,122.430992 932.983154,165.414337 933.020691,208.397598   C933.026245,214.748993 938.246338,221.228851 944.379028,221.860062   C951.603455,222.603638 958.907227,223.005295 966.162109,222.854691   C970.147888,222.771957 974.458374,221.966995 977.997070,220.220566   C984.726318,216.899536 985.852112,210.073746 985.924744,203.443329   C986.136414,184.119827 985.452942,164.771866 986.181274,145.473526   C986.719910,131.199768 992.508606,121.872536 1004.179138,118.429367   C1019.459106,113.921326 1034.112549,120.155350 1036.855713,135.767487   C1038.245605,143.677704 1038.755371,151.809616 1038.909424,159.855743   C1039.215698,175.843658 1038.982788,191.841599 1039.009277,207.835342   C1039.019531,213.995468 1043.309204,220.914093 1049.098145,221.336746   C1059.679321,222.109344 1070.511230,222.614212 1080.951782,221.164932   C1089.666748,219.955185 1091.846924,214.334702 1091.825195,203.863617   C1091.771606,177.992889 1093.632690,152.045410 1089.974243,126.264236   C1088.320190,114.608452 1084.617188,103.480873 1078.057617,93.766365   C1065.723877,75.500900 1047.367432,67.428314 1026.032837,66.131203   C1008.165100,65.044853 991.470337,69.274567 976.499695,81.000259  M691.990540,173.482376   C691.002625,171.465118 689.316956,169.503693 689.150208,167.420700   C688.504456,159.351395 688.211548,151.246216 688.037231,143.149002   C687.866455,135.219864 688.000000,127.284187 688.000000,118.999672   C696.659729,118.999672 704.640625,119.230446 712.602905,118.943886   C723.675903,118.545364 731.239258,113.762535 731.009827,100.787155   C730.945068,97.122040 731.002136,93.454819 730.999634,89.788559   C730.991394,77.765747 725.207336,72.006012 713.132202,72.000710   C704.867981,71.997078 696.603699,72.000015 687.998230,72.000015   C687.998230,64.992195 688.437988,58.646778 687.898804,52.385662   C687.010010,42.063538 684.075928,37.475731 675.312866,36.267204   C667.096313,35.134052 658.560242,35.441761 650.245239,36.112225   C639.015625,37.017693 635.004028,41.967663 635.000366,53.085232   C634.998291,59.333855 635.000000,65.582474 635.000000,72.002121   C630.483276,72.002121 626.818726,71.910973 623.160278,72.021423   C615.918640,72.240036 610.187988,76.579613 609.092163,83.837601   C608.112183,90.328194 607.601624,97.076485 608.244141,103.576614   C608.999634,111.219681 612.641968,117.386803 621.553650,118.186523   C625.924194,118.578720 630.287781,119.048447 635.000000,119.517471   C635.000000,122.990776 634.888672,126.303429 635.018433,129.606613   C635.752869,148.306274 633.008728,167.153839 637.053162,185.702499   C639.548767,197.147934 644.602356,207.165344 654.076965,214.698227   C663.016357,221.805664 673.132141,224.858246 684.358948,226.214874   C696.728882,227.709625 708.609314,226.663742 720.357239,222.982513   C726.725342,220.987091 732.872437,217.750275 733.551147,210.545456   C734.421265,201.307632 734.113953,191.912613 733.655945,182.617752   C733.461365,178.668991 730.573242,175.514709 726.304077,175.133911   C723.074707,174.845886 719.739685,175.388504 716.484558,175.813126   C708.367920,176.871918 700.189819,179.163757 691.990540,173.482376  M845.000000,147.500000   C845.000122,167.651062 844.980286,187.802139 845.011841,207.953156   C845.022156,214.553207 850.443420,221.293427 856.729370,221.898315   C863.792053,222.577942 870.986511,223.466797 877.992310,222.826736   C892.231445,221.525803 897.550659,219.349548 897.788208,204.660614   C898.410095,166.200455 898.184631,127.722092 897.881653,89.254257   C897.793213,78.024551 891.320679,71.644386 880.280640,71.966606   C873.957581,72.151161 867.624756,71.993423 861.296326,72.001549   C850.492065,72.015419 845.004944,77.582642 845.001648,88.544868   C844.995789,107.863243 845.000000,127.181625 845.000000,147.500000  z"
   id="path1"
   style="fill:#000000;fill-opacity:0" />&#10;<path
   fill="#CC3737"
   opacity="1.000000"
   stroke="none"
   d=" M1174.468628,294.000000   C1171.456665,292.998932 1168.987793,291.701080 1166.358643,291.042786   C1141.084717,284.714813 1121.341064,271.566162 1113.157959,245.660858   C1105.299927,220.785095 1112.328613,191.235886 1135.855103,173.378922   C1131.770508,167.298782 1127.038696,161.551636 1123.714111,155.081299   C1113.016968,134.261749 1118.053589,105.124458 1134.339233,88.926811   C1148.618286,74.725006 1165.535400,68.482582 1185.248169,67.938171   C1201.503906,67.489235 1217.479004,69.453522 1233.504395,71.807541   C1241.959717,73.049568 1249.989990,69.874825 1257.783569,66.659569   C1261.847534,64.982956 1265.899414,63.182186 1270.111572,61.980827   C1277.253540,59.943855 1283.763794,64.547203 1285.028931,71.961609   C1287.509033,86.497871 1283.910034,98.943336 1272.654053,108.849319   C1272.029907,109.398552 1271.547607,110.358238 1270.849243,110.535286   C1263.980957,112.276329 1265.776489,116.463463 1266.570923,121.683815   C1268.971191,137.457626 1265.397217,152.109406 1255.537842,164.941299   C1253.539673,167.541977 1251.365845,170.007675 1249.010254,172.852783   C1257.835571,178.623428 1264.120850,186.708252 1268.408203,196.041077   C1278.995972,219.088287 1277.966553,241.896759 1263.804810,263.044861   C1253.272949,278.772369 1237.231934,286.952209 1218.997925,291.016296   C1216.203857,291.639099 1213.457153,292.473907 1210.844238,293.605347   C1198.979126,294.000000 1186.958130,294.000000 1174.468628,294.000000  M1221.997192,219.887955   C1220.188354,215.947250 1219.185547,211.283432 1216.420044,208.200958   C1207.994141,198.808960 1196.674805,197.812347 1185.030151,199.549561   C1176.757812,200.783676 1170.062866,204.885941 1165.889404,212.462631   C1159.301880,224.422195 1163.842773,238.593658 1178.336792,245.800995   C1197.598267,255.379028 1225.769653,241.930679 1221.997192,219.887955  M1200.845703,112.379509   C1199.575562,112.088196 1198.317383,111.719902 1197.033203,111.518036   C1188.560669,110.186203 1181.034668,112.176414 1175.083252,118.494759   C1169.501221,124.421005 1168.745361,131.734421 1170.749878,139.196365   C1173.153931,148.144943 1179.946899,153.260361 1188.511230,154.752945   C1197.982178,156.403503 1206.255493,153.194458 1212.062988,144.851364   C1221.027100,131.973373 1213.174072,116.354469 1200.845703,112.379509  z"
   id="path2" />&#10;<path
   fill="#CC3737"
   opacity="1.000000"
   stroke="none"
   d=" M1462.000000,161.531326   C1461.337280,162.699493 1460.219971,163.318161 1460.078979,164.110535   C1457.257690,179.966812 1450.044312,193.632812 1438.592529,204.746109   C1425.678711,217.278488 1410.208008,224.880737 1392.081177,227.095993   C1374.755493,229.213348 1357.813721,228.435440 1341.900879,220.887863   C1334.746704,217.494583 1327.931519,213.001785 1321.748413,208.030502   C1310.829834,199.252075 1302.888916,188.087784 1298.831299,174.488571   C1292.506470,153.291229 1292.363403,132.001526 1301.836548,111.916389   C1313.002441,88.242416 1332.245850,73.567192 1357.965942,68.076347   C1376.030273,64.219933 1393.914673,65.386322 1411.261719,72.006172   C1420.058105,75.362976 1427.939209,80.177811 1435.104492,86.457535   C1448.852295,98.506142 1457.322266,113.283691 1460.240601,131.299011   C1460.303711,131.688995 1460.890015,131.994263 1461.616211,132.169525   C1462.000000,141.687561 1462.000000,151.375122 1462.000000,161.531326  M1383.013916,115.013634   C1381.185059,115.009094 1379.355103,114.963890 1377.527344,115.006638   C1365.865723,115.279358 1357.113281,120.157257 1351.992310,130.968643   C1347.337769,140.795776 1347.045410,150.695129 1350.897583,160.837067   C1358.569702,181.035553 1380.183105,183.381027 1393.773804,175.299362   C1409.841187,165.744980 1411.704346,142.722061 1402.752808,128.177216   C1398.329956,120.991013 1391.794922,117.111679 1383.013916,115.013634  z"
   id="path3" />&#10;<path
   fill="#CC3737"
   opacity="1.000000"
   stroke="none"
   d=" M1.000000,106.468651   C1.638624,105.635765 2.747796,105.370476 2.848189,104.893059   C7.233103,84.040527 22.428778,74.938934 41.153526,70.068321   C55.177273,66.420517 69.433792,66.470970 83.884880,67.785461   C95.959106,68.883751 107.571800,70.958305 118.494911,76.225754   C125.064621,79.393860 127.929649,85.737450 127.139465,93.208855   C126.668655,97.660484 127.007072,102.198944 127.002396,106.698387   C126.991936,116.768990 119.925919,121.970695 109.893166,119.485725   C100.533340,117.167419 91.199898,114.557343 81.700302,113.049156   C74.527382,111.910362 67.103279,112.033279 59.808266,112.231415   C58.184471,112.275520 56.633190,114.989342 55.048519,116.473961   C56.418629,117.677399 57.618652,119.596062 59.186287,119.968857   C69.821983,122.498024 80.674477,124.207405 91.178131,127.170052   C99.160202,129.421448 107.159187,132.359192 114.388664,136.366287   C126.788132,143.238968 131.870636,155.165085 132.892105,168.733063   C133.661484,178.952805 132.966492,189.020798 128.233322,198.641525   C124.588043,206.050980 119.239357,211.620926 112.471634,215.683868   C99.994843,223.174164 86.213898,226.601288 71.682465,226.997833   C55.129971,227.449524 38.764221,226.501556 22.629820,222.153656   C13.861678,219.790802 6.026850,216.718216 1.369311,208.019043   C1.000000,199.312439 1.000000,190.624863 1.365121,181.450897   C2.343575,180.277023 3.079090,179.663879 3.549845,178.889725   C6.065604,174.752594 11.973553,172.183060 16.608101,173.297546   C29.439585,176.383133 42.169891,180.041702 55.142475,182.324036   C61.618286,183.463348 68.568199,182.376114 75.228210,181.625977   C76.649757,181.465851 78.415733,178.521072 78.748184,176.634521   C78.961800,175.422287 77.052277,173.545410 75.705070,172.441681   C74.650055,171.577332 73.020950,171.346176 71.606384,170.998734   C57.997421,167.656067 44.139999,165.095535 30.831463,160.822968   C17.225496,156.454910 6.174766,148.416382 2.847750,133.101715   C2.743809,132.623245 1.638483,132.362335 1.000000,132.000000   C1.000000,123.645767 1.000000,115.291534 1.000000,106.468651  z"
   id="path4" />&#10;<path
   fill="#CC3737"
   opacity="1.000000"
   stroke="none"
   d=" M801.541931,1.000002   C802.291992,1.649641 802.406555,2.634573 802.903259,2.897364   C808.205200,5.702522 809.951904,10.518085 809.957642,15.986081   C810.023193,78.960648 810.022949,141.935318 809.979065,204.909912   C809.970703,216.924728 803.661255,222.654892 789.779480,222.916214   C782.856750,223.046539 775.897461,222.551239 768.992371,221.924179   C762.217468,221.308945 757.020142,214.471176 757.009521,206.672379   C756.981873,186.347275 757.000000,166.022110 757.000000,145.696960   C756.999939,115.209244 756.727051,84.718102 757.108398,54.235153   C757.317749,37.500881 763.352051,22.627161 775.697754,11.115379   C780.077271,7.031683 786.156982,4.771348 791.230225,1.339305   C794.361267,1.000000 797.722595,1.000000 801.541931,1.000002  z"
   id="path5" />&#10;<path
   fill="#CC3737"
   opacity="1.000000"
   stroke="none"
   d=" M881.531433,0.999996   C883.799927,2.376221 885.473938,3.971570 887.421448,5.091099   C896.301819,10.196214 902.684631,23.142998 900.935364,32.805824   C898.750488,44.874832 888.998230,55.186432 878.065063,56.987766   C861.283936,59.752605 847.462830,52.590546 843.052917,38.249622   C838.652283,23.938622 843.793640,9.172965 859.085449,2.880640   C859.644409,2.650635 860.052673,2.054208 860.265564,1.314277   C867.020935,1.000000 874.041931,1.000000 881.531433,0.999996  z"
   id="path6" />&#10;<path
   fill="#000000"
   opacity="1.000000"
   stroke="none"
   d=" M1.000000,132.468658   C1.638483,132.362335 2.743809,132.623245 2.847750,133.101715   C6.174766,148.416382 17.225496,156.454910 30.831463,160.822968   C44.139999,165.095535 57.997421,167.656067 71.606384,170.998734   C73.020950,171.346176 74.650055,171.577332 75.705070,172.441681   C77.052277,173.545410 78.961800,175.422287 78.748184,176.634521   C78.415733,178.521072 76.649757,181.465851 75.228210,181.625977   C68.568199,182.376114 61.618286,183.463348 55.142475,182.324036   C42.169891,180.041702 29.439585,176.383133 16.608101,173.297546   C11.973553,172.183060 6.065604,174.752594 3.549845,178.889725   C3.079090,179.663879 2.343575,180.277023 1.365121,180.982239   C1.000000,164.979111 1.000000,148.958206 1.000000,132.468658  z"
   id="path7"
   style="fill:#000000;fill-opacity:0" />&#10;<path
   fill="#CC3737"
   opacity="1.000000"
   stroke="none"
   d=" M220.079987,228.000000   C193.223557,227.874832 172.097427,212.464539 162.901947,188.178329   C158.120438,175.549835 156.162918,162.500381 156.044037,149.141800   C155.872040,129.811844 156.221344,110.475815 155.924881,91.148872   C155.715164,77.475983 163.621521,71.203850 175.115082,71.928871   C181.422729,72.326759 187.776627,71.946907 194.108658,72.013451   C202.944946,72.106308 208.953903,78.099838 208.981888,86.968613   C209.040253,105.466667 208.554504,123.980675 209.203491,142.456131   C209.492096,150.672089 211.296066,159.017319 213.663345,166.929550   C216.350952,175.912445 224.606750,178.050903 230.639557,177.865143   C238.948318,177.609268 245.127151,173.141983 247.691528,165.253281   C249.541702,159.561691 250.730637,153.417404 250.855194,147.446655   C251.247894,128.623306 251.015213,109.786583 250.994751,90.955063   C250.980667,77.984131 256.230255,71.720612 269.710602,71.980476   C275.707794,72.096092 281.709106,71.993782 287.708527,72.001457   C297.888306,72.014481 303.959381,78.005104 303.985992,88.232178   C304.034119,106.730286 303.653473,125.238342 304.172668,143.722000   C304.376648,150.984268 306.445526,158.205399 307.794006,165.421173   C309.237122,173.143524 317.282959,177.572311 324.302185,177.857895   C331.132721,178.135803 338.665710,175.188293 341.446198,167.653992   C343.952820,160.861923 345.578186,153.399307 345.801575,146.177032   C346.388611,127.196999 346.080261,108.186317 345.967773,89.188789   C345.907166,78.955719 352.177094,71.130051 363.340515,71.919647   C369.641724,72.365341 376.000366,71.981682 382.333038,72.004356   C392.615082,72.041168 398.976654,78.300507 398.990295,88.490143   C399.020691,111.154610 399.698303,133.846970 398.797028,156.475586   C397.949463,177.755341 392.096191,197.583984 375.709198,212.804596   C367.663422,220.277664 358.116791,225.072205 347.456818,226.818390   C333.878021,229.042648 320.244751,228.822723 306.753784,225.125488   C297.219116,222.512482 289.492401,217.403503 282.777618,210.334549   C277.404938,204.678497 277.729187,205.205124 272.281189,210.973389   C264.948578,218.737045 255.911575,224.297440 245.156296,225.887360   C237.033157,227.088181 228.768387,227.330872 220.079987,228.000000  z"
   id="path8" />&#10;<path
   fill="#CC3737"
   opacity="1.000000"
   stroke="none"
   d=" M453.023529,79.994537   C463.485077,72.367821 474.919220,68.649971 487.368439,66.859871   C502.858154,64.632584 517.539673,66.882805 531.600952,73.139999   C537.674194,75.842545 543.167725,79.847679 549.630981,83.679909   C551.332581,82.027336 553.562744,79.642952 556.018738,77.519806   C561.852844,72.476364 568.197021,68.623131 576.368103,68.972275   C583.009216,69.256050 587.968140,73.888374 587.974915,80.480545   C588.020508,125.134300 588.015503,169.788132 587.979614,214.441910   C587.974731,220.516357 583.381836,224.606979 577.252441,225.057953   C564.707153,225.980972 556.910339,218.323303 548.819580,210.113632   C539.559570,218.281281 528.549194,224.055115 516.132812,226.327927   C491.644440,230.810516 468.602203,227.726379 448.744232,211.225662   C429.859558,195.533707 421.249542,175.173691 420.902130,150.778015   C420.690430,135.911911 422.132416,121.534935 428.989594,108.114998   C434.698090,96.943039 442.491272,87.494965 453.023529,79.994537  M482.991455,124.512032   C475.155609,132.763123 473.152161,142.433762 474.904846,153.552597   C478.427582,175.900894 502.674866,185.694458 520.384338,175.001740   C531.302673,168.409409 535.244202,158.046814 535.044861,145.620834   C534.831604,132.331772 527.881042,121.275887 515.125427,116.772369   C503.390869,112.629356 492.458740,114.686867 482.991455,124.512032  z"
   id="path9" />&#10;<path
   fill="#CC3737"
   opacity="1.000000"
   stroke="none"
   d=" M976.756470,80.742523   C991.470337,69.274567 1008.165100,65.044853 1026.032837,66.131203   C1047.367432,67.428314 1065.723877,75.500900 1078.057617,93.766365   C1084.617188,103.480873 1088.320190,114.608452 1089.974243,126.264236   C1093.632690,152.045410 1091.771606,177.992889 1091.825195,203.863617   C1091.846924,214.334702 1089.666748,219.955185 1080.951782,221.164932   C1070.511230,222.614212 1059.679321,222.109344 1049.098145,221.336746   C1043.309204,220.914093 1039.019531,213.995468 1039.009277,207.835342   C1038.982788,191.841599 1039.215698,175.843658 1038.909424,159.855743   C1038.755371,151.809616 1038.245605,143.677704 1036.855713,135.767487   C1034.112549,120.155350 1019.459106,113.921326 1004.179138,118.429367   C992.508606,121.872536 986.719910,131.199768 986.181274,145.473526   C985.452942,164.771866 986.136414,184.119827 985.924744,203.443329   C985.852112,210.073746 984.726318,216.899536 977.997070,220.220566   C974.458374,221.966995 970.147888,222.771957 966.162109,222.854691   C958.907227,223.005295 951.603455,222.603638 944.379028,221.860062   C938.246338,221.228851 933.026245,214.748993 933.020691,208.397598   C932.983154,165.414337 932.970398,122.430992 933.029602,79.447792   C933.040222,71.753654 941.378174,66.740135 950.358032,69.276047   C957.370544,71.256371 963.652588,74.915314 968.219727,80.719101   C971.173645,84.472855 973.622070,84.329247 976.756470,80.742523  z"
   id="path10" />&#10;<path
   fill="#CC3737"
   opacity="1.000000"
   stroke="none"
   d=" M692.268738,173.752899   C700.189819,179.163757 708.367920,176.871918 716.484558,175.813126   C719.739685,175.388504 723.074707,174.845886 726.304077,175.133911   C730.573242,175.514709 733.461365,178.668991 733.655945,182.617752   C734.113953,191.912613 734.421265,201.307632 733.551147,210.545456   C732.872437,217.750275 726.725342,220.987091 720.357239,222.982513   C708.609314,226.663742 696.728882,227.709625 684.358948,226.214874   C673.132141,224.858246 663.016357,221.805664 654.076965,214.698227   C644.602356,207.165344 639.548767,197.147934 637.053162,185.702499   C633.008728,167.153839 635.752869,148.306274 635.018433,129.606613   C634.888672,126.303429 635.000000,122.990776 635.000000,119.517471   C630.287781,119.048447 625.924194,118.578720 621.553650,118.186523   C612.641968,117.386803 608.999634,111.219681 608.244141,103.576614   C607.601624,97.076485 608.112183,90.328194 609.092163,83.837601   C610.187988,76.579613 615.918640,72.240036 623.160278,72.021423   C626.818726,71.910973 630.483276,72.002121 635.000000,72.002121   C635.000000,65.582474 634.998291,59.333855 635.000366,53.085232   C635.004028,41.967663 639.015625,37.017693 650.245239,36.112225   C658.560242,35.441761 667.096313,35.134052 675.312866,36.267204   C684.075928,37.475731 687.010010,42.063538 687.898804,52.385662   C688.437988,58.646778 687.998230,64.992195 687.998230,72.000015   C696.603699,72.000015 704.867981,71.997078 713.132202,72.000710   C725.207336,72.006012 730.991394,77.765747 730.999634,89.788559   C731.002136,93.454819 730.945068,97.122040 731.009827,100.787155   C731.239258,113.762535 723.675903,118.545364 712.602905,118.943886   C704.640625,119.230446 696.659729,118.999672 688.000000,118.999672   C688.000000,127.284187 687.866455,135.219864 688.037231,143.149002   C688.211548,151.246216 688.504456,159.351395 689.150208,167.420700   C689.316956,169.503693 691.002625,171.465118 692.268738,173.752899  z"
   id="path11" />&#10;<path
   fill="#CC3737"
   opacity="1.000000"
   stroke="none"
   d=" M845.000000,147.000000   C845.000000,127.181625 844.995789,107.863243 845.001648,88.544868   C845.004944,77.582642 850.492065,72.015419 861.296326,72.001549   C867.624756,71.993423 873.957581,72.151161 880.280640,71.966606   C891.320679,71.644386 897.793213,78.024551 897.881653,89.254257   C898.184631,127.722092 898.410095,166.200455 897.788208,204.660614   C897.550659,219.349548 892.231445,221.525803 877.992310,222.826736   C870.986511,223.466797 863.792053,222.577942 856.729370,221.898315   C850.443420,221.293427 845.022156,214.553207 845.011841,207.953156   C844.980286,187.802139 845.000122,167.651062 845.000000,147.000000  z"
   id="path12" />&#10;<path
   fill="#000000"
   opacity="1.000000"
   stroke="none"
   d=" M1221.998291,220.337219   C1225.769653,241.930679 1197.598267,255.379028 1178.336792,245.800995   C1163.842773,238.593658 1159.301880,224.422195 1165.889404,212.462631   C1170.062866,204.885941 1176.757812,200.783676 1185.030151,199.549561   C1196.674805,197.812347 1207.994141,198.808960 1216.420044,208.200958   C1219.185547,211.283432 1220.188354,215.947250 1221.998291,220.337219  z"
   id="path13"
   style="fill:#000000;fill-opacity:0" />&#10;<path
   fill="#000000"
   opacity="1.000000"
   stroke="none"
   d=" M1201.171631,112.620911   C1213.174072,116.354469 1221.027100,131.973373 1212.062988,144.851364   C1206.255493,153.194458 1197.982178,156.403503 1188.511230,154.752945   C1179.946899,153.260361 1173.153931,148.144943 1170.749878,139.196365   C1168.745361,131.734421 1169.501221,124.421005 1175.083252,118.494759   C1181.034668,112.176414 1188.560669,110.186203 1197.033203,111.518036   C1198.317383,111.719902 1199.575562,112.088196 1201.171631,112.620911  z"
   id="path14"
   style="fill:#000000;fill-opacity:0" />&#10;<path
   fill="#000000"
   opacity="1.000000"
   stroke="none"
   d=" M1383.453979,115.038895   C1391.794922,117.111679 1398.329956,120.991013 1402.752808,128.177216   C1411.704346,142.722061 1409.841187,165.744980 1393.773804,175.299362   C1380.183105,183.381027 1358.569702,181.035553 1350.897583,160.837067   C1347.045410,150.695129 1347.337769,140.795776 1351.992310,130.968643   C1357.113281,120.157257 1365.865723,115.279358 1377.527344,115.006638   C1379.355103,114.963890 1381.185059,115.009094 1383.453979,115.038895  z"
   id="path15"
   style="fill:#000000;fill-opacity:0" />&#10;<path
   fill="#000000"
   opacity="1.000000"
   stroke="none"
   d=" M483.243225,124.258041   C492.458740,114.686867 503.390869,112.629356 515.125427,116.772369   C527.881042,121.275887 534.831604,132.331772 535.044861,145.620834   C535.244202,158.046814 531.302673,168.409409 520.384338,175.001740   C502.674866,185.694458 478.427582,175.900894 474.904846,153.552597   C473.152161,142.433762 475.155609,132.763123 483.243225,124.258041  z"
   id="path16"
   style="fill:#000000;fill-opacity:0" />&#10;</svg>
